name Walk1.mot
datacolumns 19
datarows 22
range 1.65000000 1.67100000
endheader

                time	   L_ground_force_vx	   L_ground_force_vy	   L_ground_force_vz	   L_ground_force_px	   L_ground_force_py	   L_ground_force_pz	   R_ground_force_vx	   R_ground_force_vy	   R_ground_force_vz	   R_ground_force_px	   R_ground_force_py	   R_ground_force_pz	   L_ground_torque_x	   L_ground_torque_y	   L_ground_torque_z	   R_ground_torque_x	   R_ground_torque_y	   R_ground_torque_z	
          1.65000000	        -23.63420824	        424.64124390	        -33.73753858	          0.57582899	          0.00000000	          0.06082766	          0.00000000	          0.00000000	          0.00000000	          0.00000000	          0.00000000	          0.00000000	          0.00000000	          1.63278165	          0.00000000	          0.00000000	          0.00000000	          0.00000000	
          1.65100000	        -23.41362213	        422.80054002	        -33.45370523	          0.57667280	          0.00000000	          0.06100449	          0.00000000	          0.00000000	          0.00000000	          0.00000000	          0.00000000	          0.00000000	          0.00000000	          1.59776449	          0.00000000	          0.00000000	          0.00000000	          0.00000000	
          1.65200000	        -23.19858406	        420.99578214	        -33.17847447	          0.57740704	          0.00000000	          0.06113564	          0.00000000	          0.00000000	          0.00000000	          0.00000000	          0.00000000	          0.00000000	          0.00000000	          1.56262347	          0.00000000	          0.00000000	          0.00000000	          0.00000000	
          1.65300000	        -23.00955548	        419.22373905	        -32.91044663	          0.57806155	          0.00000000	          0.06122580	          0.00000000	          0.00000000	          0.00000000	          0.00000000	          0.00000000	          0.00000000	          0.00000000	          1.52207513	          0.00000000	          0.00000000	          0.00000000	          0.00000000	
          1.65400000	        -22.86046996	        417.49241603	        -32.65099037	          0.57867411	          0.00000000	          0.06127678	          0.00000000	          0.00000000	          0.00000000	          0.00000000	          0.00000000	          0.00000000	          0.00000000	          1.47606564	          0.00000000	          0.00000000	          0.00000000	          0.00000000	
          1.65500000	        -22.75519255	        415.82872938	        -32.40157424	          0.57928460	          0.00000000	          0.06129868	          0.00000000	          0.00000000	          0.00000000	          0.00000000	          0.00000000	          0.00000000	          0.00000000	          1.43003625	          0.00000000	          0.00000000	          0.00000000	          0.00000000	
          1.65600000	        -22.69016276	        414.28517456	        -32.15774927	          0.57993706	          0.00000000	          0.06133357	          0.00000000	          0.00000000	          0.00000000	          0.00000000	          0.00000000	          0.00000000	          0.00000000	          1.39221615	          0.00000000	          0.00000000	          0.00000000	          0.00000000	
          1.65700000	        -22.65042323	        412.90791093	        -31.91102368	          0.58069329	          0.00000000	          0.06142281	          0.00000000	          0.00000000	          0.00000000	          0.00000000	          0.00000000	          0.00000000	          0.00000000	          1.36676607	          0.00000000	          0.00000000	          0.00000000	          0.00000000	
          1.65800000	        -22.61006742	        411.69119121	        -31.65559260	          0.58159550	          0.00000000	          0.06156142	          0.00000000	          0.00000000	          0.00000000	          0.00000000	          0.00000000	          0.00000000	          0.00000000	          1.34950280	          0.00000000	          0.00000000	          0.00000000	          0.00000000	
          1.65900000	        -22.54884555	        410.57675747	        -31.38940099	          0.58260934	          0.00000000	          0.06171252	          0.00000000	          0.00000000	          0.00000000	          0.00000000	          0.00000000	          0.00000000	          0.00000000	          1.33350883	          0.00000000	          0.00000000	          0.00000000	          0.00000000	
          1.66000000	        -22.46609505	        409.51059973	        -31.11641130	          0.58363913	          0.00000000	          0.06184431	          0.00000000	          0.00000000	          0.00000000	          0.00000000	          0.00000000	          0.00000000	          0.00000000	          1.31597646	          0.00000000	          0.00000000	          0.00000000	          0.00000000	
          1.66100000	        -22.37377149	        408.47868561	        -30.85069529	          0.58457684	          0.00000000	          0.06194236	          0.00000000	          0.00000000	          0.00000000	          0.00000000	          0.00000000	          0.00000000	          0.00000000	          1.29760668	          0.00000000	          0.00000000	          0.00000000	          0.00000000	
          1.66200000	        -22.28119437	        407.49056281	        -30.60757879	          0.58533348	          0.00000000	          0.06201727	          0.00000000	          0.00000000	          0.00000000	          0.00000000	          0.00000000	          0.00000000	          0.00000000	          1.28060630	          0.00000000	          0.00000000	          0.00000000	          0.00000000	
          1.66300000	        -22.18765549	        406.56878659	        -30.39065061	          0.58588754	          0.00000000	          0.06211408	          0.00000000	          0.00000000	          0.00000000	          0.00000000	          0.00000000	          0.00000000	          0.00000000	          1.26736602	          0.00000000	          0.00000000	          0.00000000	          0.00000000	
          1.66400000	        -22.08509717	        405.73731913	        -30.19455979	          0.58632804	          0.00000000	          0.06227077	          0.00000000	          0.00000000	          0.00000000	          0.00000000	          0.00000000	          0.00000000	          0.00000000	          1.25531248	          0.00000000	          0.00000000	          0.00000000	          0.00000000	
          1.66500000	        -21.96983516	        404.98590290	        -30.01449469	          0.58681666	          0.00000000	          0.06245390	          0.00000000	          0.00000000	          0.00000000	          0.00000000	          0.00000000	          0.00000000	          0.00000000	          1.23424560	          0.00000000	          0.00000000	          0.00000000	          0.00000000	
          1.66600000	        -21.85000188	        404.26945663	        -29.84279872	          0.58747308	          0.00000000	          0.06257797	          0.00000000	          0.00000000	          0.00000000	          0.00000000	          0.00000000	          0.00000000	          0.00000000	          1.19549511	          0.00000000	          0.00000000	          0.00000000	          0.00000000	
          1.66700000	        -21.73544918	        403.55916941	        -29.66620987	          0.58829156	          0.00000000	          0.06259162	          0.00000000	          0.00000000	          0.00000000	          0.00000000	          0.00000000	          0.00000000	          0.00000000	          1.14264497	          0.00000000	          0.00000000	          0.00000000	          0.00000000	
          1.66800000	        -21.62647747	        402.88773366	        -29.48268566	          0.58917694	          0.00000000	          0.06252996	          0.00000000	          0.00000000	          0.00000000	          0.00000000	          0.00000000	          0.00000000	          0.00000000	          1.08743232	          0.00000000	          0.00000000	          0.00000000	          0.00000000	
          1.66900000	        -21.51710132	        402.33316589	        -29.31170293	          0.59004209	          0.00000000	          0.06248715	          0.00000000	          0.00000000	          0.00000000	          0.00000000	          0.00000000	          0.00000000	          0.00000000	          1.03797232	          0.00000000	          0.00000000	          0.00000000	          0.00000000	
          1.67000000	        -21.39879923	        401.94559225	        -29.17280401	          0.59085053	          0.00000000	          0.06253329	          0.00000000	          0.00000000	          0.00000000	          0.00000000	          0.00000000	          0.00000000	          0.00000000	          0.99473039	          0.00000000	          0.00000000	          0.00000000	          0.00000000	
          1.67100000	        -21.25998794	        401.70555687	        -29.06329622	          0.59158448	          0.00000000	          0.06266536	          0.00000000	          0.00000000	          0.00000000	          0.00000000	          0.00000000	          0.00000000	          0.00000000	          0.95515201	          0.00000000	          0.00000000	          0.00000000	          0.00000000	
